<?xml version="1.0" encoding="utf-8"?>
<!-- Generator: Adobe Illustrator 18.0.0, SVG Export Plug-In . SVG Version: 6.00 Build 0)  -->
<!DOCTYPE svg PUBLIC "-//W3C//DTD SVG 1.1//EN" "http://www.w3.org/Graphics/SVG/1.1/DTD/svg11.dtd">
<svg version="1.1" id="Layer_1" xmlns="http://www.w3.org/2000/svg" xmlns:xlink="http://www.w3.org/1999/xlink" x="0px" y="0px"
	 viewBox="0 0 612 389" enable-background="new 0 0 612 389" xml:space="preserve">
<polygon fill="#E95F5B" points="214.5,110.6 171.9,135.2 129.4,110.6 129.4,61.5 171.9,36.9 214.5,61.5 "/>
<polyline fill="none" stroke="#58595B" stroke-width="4" stroke-linecap="round" stroke-miterlimit="10" points="161.3,311.1 
	45.3,244.6 45.3,103.7 167.3,33.3 "/>
<polyline fill="none" stroke="#58595B" stroke-width="10" stroke-linecap="round" stroke-miterlimit="10" points="280.5,145.1 
	280.5,286 158.5,356.4 "/>
<polygon fill="#FBB040" points="270.6,280.6 194.5,324.5 118.4,280.6 118.4,192.8 194.5,148.8 270.6,192.8 "/>
<polygon fill="#FBB040" points="153.8,347.7 194.5,324.5 172.8,311.3 "/>
<polyline fill="#AECD63" points="60.9,248.4 113.7,218.5 113.7,144.3 49.5,107.3 49.5,107.3 49.5,242.3 "/>
<polygon fill="#B75151" points="144,118.5 199.5,118.5 171.9,134.6 "/>
<polygon fill="#A6A8AB" points="63.7,248.7 115.7,219.2 115.7,278.3 "/>
<polygon fill="#D0D2D3" points="53.2,106.2 125.7,64.3 125.7,145.3 "/>
<polygon fill="#BBBDBF" points="117,147.5 117,190.3 154.5,168.7 "/>
<polygon fill="#A6A8AB" points="127.5,113.7 127.5,145.7 151.5,127.6 "/>
<polygon fill="#808184" points="151.9,130.1 151.9,163.4 126.5,149.1 "/>
<polygon fill="#E6E7E8" points="153.6,130.2 153.6,163.5 182.6,147.4 "/>
<path fill="none" stroke="#FFFFFF" stroke-width="8" stroke-linecap="round" stroke-miterlimit="10" d="M144.5,236
	c0,0,12.7-14.7,32-14.7s20.7,17.7,43.7,17.7s24-18,24-18"/>
<path fill="none" stroke="#6E9A2D" stroke-width="3" stroke-miterlimit="10" d="M113.8,205c-12.7,0-23-10.3-23-23s10.3-23,23-23"/>
<polygon fill="#D0D2D3" points="178.8,137.7 219.2,160.7 219.2,114.7 "/>
<polygon fill="#D0D2D3" points="218,63 218,107.5 252.8,85.7 "/>
<polygon fill="#A6A8AB" points="255.8,87.3 255.8,134.7 217.7,111.1 "/>
<polygon fill="#E6E7E8" points="271.4,154.3 271.4,190.3 242.4,172.5 "/>
<polygon fill="#BBBDBF" points="240,170.7 240,129.9 272.8,150.1 "/>
<polygon fill="#E6E7E8" points="237.8,153.3 237.8,172 221.5,162 "/>
<polygon fill="#E6E7E8" points="237.8,129.1 237.8,147.7 221.5,137.7 "/>
<polygon fill="#D0D2D3" points="220.5,160 220.5,140.7 237.5,151 "/>
<polygon fill="#D0D2D3" points="220.5,135.5 220.5,116.2 237.5,126.5 "/>
<g>
	<g>
		<path fill="#59595C" stroke="#59595C" stroke-width="4" stroke-miterlimit="10" d="M571.2,125.3l-6.3,2.7
			c-6.3-14.2-19.1-21.4-34-22.3v-6.8C548.5,99.8,564,108.4,571.2,125.3z"/>
		<path fill="#59595C" stroke="#59595C" stroke-width="4" stroke-miterlimit="10" d="M572.1,218.4c0,24.3-18.9,41.8-43.4,43.2v-6.8
			c20.9-1.6,36.7-16,36.7-36.4c0-18.9-22-28.8-40-35.1c-20.3-7-44.5-18.2-44.5-41.4c0-24.3,18.7-41.6,43.4-43v6.8
			c-21.1,1.3-36.7,16-36.7,36.2c0,18.9,22,28.8,40,35.1C547.8,184,572.1,195.3,572.1,218.4z"/>
		<path fill="#59595C" stroke="#59595C" stroke-width="4" stroke-miterlimit="10" d="M521.9,254.9v6.8c-17.8-0.9-33.1-9.4-40.3-26.6
			l6.3-2.7C494.2,246.6,507.1,254,521.9,254.9z"/>
		<rect x="339.2" y="101.4" fill="#59595C" stroke="#58595B" stroke-width="4" stroke-miterlimit="10" width="6.8" height="157.5"/>
		<rect x="404" y="252.2" fill="#59595C" stroke="#59595C" stroke-width="4" stroke-miterlimit="10" width="69.3" height="6.7"/>
		<rect x="390.5" y="101.4" fill="#59595C" stroke="#59595C" stroke-width="4" stroke-miterlimit="10" width="6.8" height="157.5"/>
	</g>
	<g>
		<path fill="none" stroke="#59595C" stroke-width="3" stroke-linejoin="round" d="M571.2,125.3l-6.3,2.7
			c-6.3-14.2-19.1-21.4-34-22.3v-6.8C548.5,99.8,564,108.4,571.2,125.3z"/>
		<path fill="none" stroke="#59595C" stroke-width="3" stroke-linejoin="round" d="M572.1,218.4c0,24.3-18.9,41.8-43.4,43.2v-6.8
			c20.9-1.6,36.7-16,36.7-36.4c0-18.9-22-28.8-40-35.1c-20.3-7-44.5-18.2-44.5-41.4c0-24.3,18.7-41.6,43.4-43v6.8
			c-21.1,1.3-36.7,16-36.7,36.2c0,18.9,22,28.8,40,35.1C547.8,184,572.1,195.3,572.1,218.4z"/>
		<path fill="none" stroke="#59595C" stroke-width="3" stroke-linejoin="round" d="M521.9,254.9v6.8c-17.8-0.9-33.1-9.4-40.3-26.6
			l6.3-2.7C494.2,246.6,507.1,254,521.9,254.9z"/>
		<rect x="339.2" y="101.4" fill="none" stroke="#59595C" stroke-width="3" stroke-linejoin="round" width="6.8" height="157.5"/>
		<rect x="404" y="252.2" fill="none" stroke="#59595C" stroke-width="3" stroke-linejoin="round" width="69.3" height="6.7"/>
		<rect x="390.5" y="101.4" fill="none" stroke="#59595C" stroke-width="3" stroke-linejoin="round" width="6.8" height="157.5"/>
	</g>
</g>
</svg>
