<?xml version="1.0" encoding="utf-8"?>
<!-- Generator: Adobe Illustrator 18.0.0, SVG Export Plug-In . SVG Version: 6.00 Build 0)  -->
<!DOCTYPE svg PUBLIC "-//W3C//DTD SVG 1.1//EN" "http://www.w3.org/Graphics/SVG/1.1/DTD/svg11.dtd">
<svg version="1.1" id="Layer_1" xmlns="http://www.w3.org/2000/svg" xmlns:xlink="http://www.w3.org/1999/xlink" x="0px" y="0px"
	 viewBox="277.4 387.7 164.4 162.2" enable-background="new 277.4 387.7 164.4 162.2" xml:space="preserve">
<g>
	<polygon fill="#E4E4E4" points="371.2,391 442.8,465.1 442.8,550.9 321.2,550.9 278.4,514 	"/>
	<path fill="#283E53" d="M370.9,523.6h-83.2c-5.2,0-9.4-4.2-9.4-9.4V400.3c0-5.2,4.2-9.4,9.4-9.4h83.2c5.2,0,9.4,4.2,9.4,9.4v113.9
		C380.3,519.4,376.1,523.6,370.9,523.6z"/>
	<rect x="306.3" y="389.6" fill="#C4C5C7" width="46.1" height="2.6"/>
	<path fill="#FFFBF2" d="M287.7,396.9H371c2.8,0,5,2.4,5,5.3V513c0,2.9-2.2,5.3-5,5.3h-66.3c-1.4,0-2.6-0.6-3.6-1.6l-17-18.6
		c-0.9-1-1.4-2.3-1.4-3.7v-92.2C282.7,399.3,284.9,396.9,287.7,396.9z"/>
	<path fill="#DADBD6" stroke="#B9B9B9" stroke-width="0.5" stroke-miterlimit="10" d="M296.3,397.2v8.7c0,0.5,0.4,1,0.9,1H318
		c0.2,0,0.4-0.1,0.6-0.2l1.3-1.1c0.2-0.2,0.4-0.2,0.6-0.2h15.1c0.1,0,0.3,0,0.4,0.1l2.8,1.4c0.1,0.1,0.3,0.1,0.4,0.1h22.3
		c0.5,0,0.9-0.4,0.9-1v-8.7c0-0.5-0.4-1-0.9-1h-64.1C296.8,396.2,296.3,396.6,296.3,397.2z M359.7,405.7h-20c-0.2,0-0.3,0-0.4-0.1
		l-2.9-1.7c-0.1-0.1-0.3-0.1-0.4-0.1l-16,0c-0.2,0-0.4,0.1-0.6,0.2l-1.5,1.4c-0.2,0.2-0.4,0.2-0.6,0.2H299c-0.5,0-0.9-0.4-0.9-1
		v-6.6c0-0.5,0.4-1,0.9-1h60.7c0.5,0,0.9,0.4,0.9,1v6.6C360.6,405.3,360.2,405.7,359.7,405.7z"/>
	<rect x="306.3" y="392.3" fill="#8F939E" width="46.1" height="3.3"/>
	<rect x="306.3" y="395.6" fill="#526379" width="46.1" height="2.6"/>
	<path fill="#F3F3F3" stroke="#C3BABC" stroke-width="2" stroke-miterlimit="10" d="M306.6,435h-15.4c-1,0-1.7-0.8-1.7-1.7v-16.5
		c0-1,0.8-1.7,1.7-1.7h15.4c1,0,1.7,0.8,1.7,1.7v16.5C308.3,434.3,307.6,435,306.6,435z"/>
	<path fill="#F3F3F3" stroke="#C3BABC" stroke-width="2" stroke-miterlimit="10" d="M306.6,460h-15.4c-1,0-1.7-0.8-1.7-1.7v-16.5
		c0-1,0.8-1.7,1.7-1.7h15.4c1,0,1.7,0.8,1.7,1.7v16.5C308.3,459.3,307.6,460,306.6,460z"/>
	<path fill="#F3F3F3" stroke="#C3BABC" stroke-width="2" stroke-miterlimit="10" d="M306.6,485h-15.4c-1,0-1.7-0.8-1.7-1.7v-16.5
		c0-1,0.8-1.7,1.7-1.7h15.4c1,0,1.7,0.8,1.7,1.7v16.5C308.3,484.3,307.6,485,306.6,485z"/>
	<path fill="#D8D5CE" d="M366.2,428.8H319c-2,0-3.5-1.6-3.5-3.5v-0.4c0-2,1.6-3.5,3.5-3.5h47.2c2,0,3.5,1.6,3.5,3.5v0.4
		C369.7,427.2,368.2,428.8,366.2,428.8z"/>
	<path fill="#D8D5CE" d="M366.2,453.8H319c-2,0-3.5-1.6-3.5-3.5v-0.4c0-2,1.6-3.5,3.5-3.5h47.2c2,0,3.5,1.6,3.5,3.5v0.4
		C369.7,452.2,368.2,453.8,366.2,453.8z"/>
	<path fill="#D8D5CE" d="M366.2,478.8H319c-2,0-3.5-1.6-3.5-3.5v-0.4c0-2,1.6-3.5,3.5-3.5h47.2c2,0,3.5,1.6,3.5,3.5v0.4
		C369.7,477.2,368.2,478.8,366.2,478.8z"/>
	<path fill="#E95149" d="M295.3,424.7L295.3,424.7c-0.6-0.8-1.6-0.8-2.3-0.1l-1.1,1.1c-0.6,0.6-0.6,1.7,0,2.3l1.1,1.1l1.9,2.1
		c0.6,0.6,1.6,0.6,2.2,0l2.3-2.4l6.4-6.7c0.6-0.6,0.6-1.7,0-2.3l-0.8-0.9c-0.6-0.7-1.6-0.6-2.2,0l-5.1,5.8
		C297,425.5,295.9,425.5,295.3,424.7z"/>
	<path fill="#E95149" d="M295.3,449.7L295.3,449.7c-0.6-0.8-1.6-0.8-2.3-0.1l-1.1,1.1c-0.6,0.6-0.6,1.7,0,2.3l1.1,1.1l1.9,2.1
		c0.6,0.6,1.6,0.6,2.2,0l2.3-2.4l6.4-6.7c0.6-0.6,0.6-1.7,0-2.3l-0.8-0.9c-0.6-0.7-1.6-0.6-2.2,0l-5.1,5.8
		C297,450.5,295.9,450.5,295.3,449.7z"/>
	<path fill="#EEEBE6" d="M284.6,496.5h16.3c0.9,0,1.7,0.8,1.7,1.7V516c0,0.8-1,1.2-1.5,0.6L284,498
		C283.5,497.4,283.9,496.5,284.6,496.5z"/>
	<g>
		<polygon fill="#53BDC3" points="365.6,504.2 360.5,502.6 355.4,501.1 347.4,530.4 356.8,526.1 362.7,535 370.7,505.7 		"/>
		<polygon fill="#53BDC3" points="377,503.6 372.1,505.6 367.1,507.7 377.7,536.1 382.7,526.6 392.5,529.9 381.9,501.5 		"/>
		<polygon fill="#187384" points="356.8,526.1 347.4,530.4 356.8,495.9 363.4,499.2 		"/>
		<polygon fill="#187384" points="382.7,526.6 392.5,529.9 381.9,501.5 374.6,504.6 		"/>
		<ellipse fill="#FCC635" cx="368.9" cy="487" rx="21.2" ry="22.4"/>
		<ellipse fill="#EF8018" cx="368.9" cy="487" rx="17.9" ry="18.9"/>
		<ellipse fill="#FFDE66" cx="368.9" cy="487" rx="15" ry="15.8"/>
		<path fill="#FDC723" d="M379.5,498.1c5.9-6.2,5.9-16.2,0-22.4l-21.2,22.4C364.2,504.3,373.7,504.3,379.5,498.1z"/>
	</g>
	<path fill="#E95149" d="M295.3,474.7L295.3,474.7c-0.6-0.8-1.6-0.8-2.3-0.1l-1.1,1.1c-0.6,0.6-0.6,1.7,0,2.3l1.1,1.1l1.9,2.1
		c0.6,0.6,1.6,0.6,2.2,0l2.3-2.4l6.4-6.7c0.6-0.6,0.6-1.7,0-2.3l-0.8-0.9c-0.6-0.7-1.6-0.6-2.2,0l-5.1,5.8
		C297,475.5,295.9,475.5,295.3,474.7z"/>
</g>
</svg>
