<?xml version="1.0" encoding="utf-8"?>
<!-- Generator: Adobe Illustrator 18.0.0, SVG Export Plug-In . SVG Version: 6.00 Build 0)  -->
<!DOCTYPE svg PUBLIC "-//W3C//DTD SVG 1.1//EN" "http://www.w3.org/Graphics/SVG/1.1/DTD/svg11.dtd">
<svg version="1.1" id="Layer_1" xmlns="http://www.w3.org/2000/svg" xmlns:xlink="http://www.w3.org/1999/xlink" x="0px" y="0px"
	 viewBox="277.4 387.7 164.4 162.2" enable-background="new 277.4 387.7 164.4 162.2" xml:space="preserve">
<g>
	<polygon fill="#E4E4E4" points="370.9,390 442.4,464.4 442.4,550.6 320.9,550.6 278.1,513.6 	"/>
	<path fill="#283E53" d="M370.5,523.2h-83.1c-5.2,0-9.4-4.2-9.4-9.4V399.3c0-5.2,4.2-9.4,9.4-9.4h83.1c5.2,0,9.4,4.2,9.4,9.4v114.5
		C379.9,519,375.7,523.2,370.5,523.2z"/>
	<rect x="305.9" y="388.6" fill="#C4C5C7" width="46.1" height="2.6"/>
	<path fill="#FFFBF2" d="M287.4,395.9h83.2c2.8,0,5,2.4,5,5.3v111.3c0,2.9-2.2,5.3-5,5.3h-66.3c-1.4,0-2.6-0.6-3.6-1.6l-17-18.7
		c-0.9-1-1.4-2.3-1.4-3.7v-92.7C282.4,398.3,284.6,395.9,287.4,395.9z"/>
	<path fill="#DADBD6" stroke="#B9B9B9" stroke-width="0.5" stroke-miterlimit="10" d="M296,396.2v8.8c0,0.5,0.4,1,0.9,1h20.7
		c0.2,0,0.4-0.1,0.6-0.2l1.3-1.1c0.2-0.2,0.4-0.2,0.6-0.2h15c0.1,0,0.3,0,0.4,0.1l2.8,1.4c0.1,0.1,0.3,0.1,0.4,0.1H361
		c0.5,0,0.9-0.4,0.9-1v-8.8c0-0.5-0.4-1-0.9-1h-64.1C296.4,395.2,296,395.7,296,396.2z M359.3,404.8h-20c-0.2,0-0.3,0-0.4-0.1
		L336,403c-0.1-0.1-0.3-0.1-0.4-0.1l-16,0c-0.2,0-0.4,0.1-0.6,0.2l-1.5,1.4c-0.2,0.2-0.4,0.2-0.6,0.2h-18.1c-0.5,0-0.9-0.4-0.9-1
		v-6.6c0-0.5,0.4-1,0.9-1h60.6c0.5,0,0.9,0.4,0.9,1v6.6C360.2,404.4,359.8,404.8,359.3,404.8z"/>
	<rect x="305.9" y="391.3" fill="#8F939E" width="46.1" height="3.3"/>
	<rect x="305.9" y="394.6" fill="#526379" width="46.1" height="2.6"/>
	<path fill="#F3F3F3" stroke="#C3BABC" stroke-width="2" stroke-miterlimit="10" d="M306.3,434.2h-15.4c-1,0-1.7-0.8-1.7-1.7v-16.6
		c0-1,0.8-1.7,1.7-1.7h15.4c1,0,1.7,0.8,1.7,1.7v16.6C308,433.5,307.2,434.2,306.3,434.2z"/>
	<path fill="#F3F3F3" stroke="#C3BABC" stroke-width="2" stroke-miterlimit="10" d="M306.3,459.4h-15.4c-1,0-1.7-0.8-1.7-1.7v-16.6
		c0-1,0.8-1.7,1.7-1.7h15.4c1,0,1.7,0.8,1.7,1.7v16.6C308,458.6,307.2,459.4,306.3,459.4z"/>
	<path fill="#F3F3F3" stroke="#C3BABC" stroke-width="2" stroke-miterlimit="10" d="M306.3,484.5h-15.4c-1,0-1.7-0.8-1.7-1.7v-16.6
		c0-1,0.8-1.7,1.7-1.7h15.4c1,0,1.7,0.8,1.7,1.7v16.6C308,483.7,307.2,484.5,306.3,484.5z"/>
	<path fill="#D8D5CE" d="M365.8,428h-47.2c-2,0-3.5-1.6-3.5-3.5V424c0-2,1.6-3.5,3.5-3.5h47.2c2,0,3.5,1.6,3.5,3.5v0.4
		C369.4,426.4,367.8,428,365.8,428z"/>
	<path fill="#D8D5CE" d="M365.8,453.1h-47.2c-2,0-3.5-1.6-3.5-3.5v-0.4c0-2,1.6-3.5,3.5-3.5h47.2c2,0,3.5,1.6,3.5,3.5v0.4
		C369.4,451.5,367.8,453.1,365.8,453.1z"/>
	<path fill="#D8D5CE" d="M365.8,478.2h-47.2c-2,0-3.5-1.6-3.5-3.5v-0.4c0-2,1.6-3.5,3.5-3.5h47.2c2,0,3.5,1.6,3.5,3.5v0.4
		C369.4,476.6,367.8,478.2,365.8,478.2z"/>
	<path fill="#E95149" d="M295,423.9L295,423.9c-0.6-0.8-1.6-0.8-2.3-0.1l-1.1,1.1c-0.6,0.6-0.6,1.7,0,2.3l1.1,1.1l1.9,2.1
		c0.6,0.6,1.6,0.6,2.2,0l2.3-2.4l6.3-6.7c0.6-0.6,0.6-1.7,0-2.3l-0.8-0.9c-0.6-0.7-1.6-0.6-2.2,0l-5.1,5.8
		C296.7,424.7,295.6,424.6,295,423.9z"/>
	<path fill="#EEEBE6" d="M284.3,496h16.3c0.9,0,1.7,0.8,1.7,1.8v17.8c0,0.8-1,1.2-1.5,0.6l-17-18.7C283.2,496.9,283.6,496,284.3,496
		z"/>
	<g>
		<path fill="#FFE6AE" d="M320.5,490.5l-9.8,5.2c-0.4,0.2-0.8-0.3-0.6-0.7l4.6-11.1c0.2-0.4,0.7-0.5,1-0.2l5,5.7
			C321,489.8,320.9,490.3,320.5,490.5z"/>
		<path fill="#F8B041" d="M317,487.4l0.3,0.4c0.7,0.7,1.8,0.7,2.4,0l46.5-52.5l-2.6-2.9L317,485.1
			C316.4,485.7,316.4,486.7,317,487.4z"/>
		<path fill="#8C8C8C" d="M311.1,492.6c0,0,1.1,0.2,1.8,2l-2.9,1.5c-0.2,0.1-0.4-0.1-0.3-0.3L311.1,492.6z"/>
		<polygon opacity="0.19" fill="#444444" points="316.9,485.2 309.5,496.5 315.1,483.1 		"/>
		<polygon fill="#97999D" points="371.7,429.2 373.6,431.2 368.1,437.4 366.3,435.3 		"/>
		<polygon fill="#C7CCD1" points="369.2,426.3 371.7,429.2 366.3,435.3 363.7,432.4 		"/>
		<polygon fill="#B7BBC0" points="367.3,424.2 369.2,426.3 363.7,432.4 361.9,430.3 		"/>
		<g>
			<path fill="#EDA33F" d="M315.1,485.2L315.1,485.2c0.5,0.6,1.3,0.6,1.8,0l46.8-52.8l-1.8-2.1l-46.8,52.8c0,0,0,0,0,0l-0.4,0.9
				C314.7,484.4,314.8,484.9,315.1,485.2z"/>
		</g>
		<g>
			<path fill="#E89F3E" d="M319.5,490.1c0.3,0.3,0.7,0.5,1,0.4l0.8-0.4c0,0,0,0,0,0l46.8-52.8l-1.8-2.1l-46.8,52.8
				C319,488.6,319,489.6,319.5,490.1z"/>
		</g>
		<path fill="#E84641" d="M373.3,431.5c0,0,3.6-4.3,0.5-7.9c-3.1-3.5-6.7,0.9-6.7,0.9L373.3,431.5z"/>
	</g>
</g>
</svg>
