<svg version="1.1" id="Layer_1" xmlns="http://www.w3.org/2000/svg" x="0" y="0" viewBox="277.4 387.7 164.4 162.2" xml:space="preserve"><path fill="#E4E4E4" d="M395.5 427.3l46.3 71.6v51H294.9l-11.6-16.2z"/><path fill="#B87E66" d="M386.2 534.4h-98.8c-5.2 0-9.3-4.2-9.3-9.3v-89.3c0-5.2 4.2-9.3 9.3-9.3h98.8c5.2 0 9.3 4.2 9.3 9.3V525c0 5.2-4.1 9.4-9.3 9.4z"/><path fill="#F5AA89" d="M386 529.6h-98.8c-5.2 0-9.3-4.2-9.3-9.3V431c0-5.2 4.2-9.3 9.3-9.3H386c5.2 0 9.3 4.2 9.3 9.3v89.3c0 5.1-4.2 9.3-9.3 9.3z"/><path fill="#99A3B7" d="M336.8 525.9h-45.5c-5.5 0-10-4.5-10-10v-5h55.5v15z"/><path fill="#929DAF" d="M382.6 525.9h-45.8v-15h55.5v5.3c-.1 5.4-4.4 9.7-9.7 9.7z"/><path fill="#EEEFF4" d="M384.7 519.3h-95.9c-4.1 0-7.5-3.4-7.5-7.5V410.7c0-4.1 3.4-7.5 7.5-7.5h95.9c4.1 0 7.5 3.4 7.5 7.5v101.1c0 4.1-3.3 7.5-7.5 7.5z"/><path fill="#CED4E0" d="M388.5 409.5l3.7 9.5v95.5c0 2.6-2 4.7-4.5 4.7h-50.9l51.7-109.7z"/><path fill="#BEC4D0" d="M388.5 400.2v103c0 3.3-1.9 7.3-5.2 7.9l-46.6 8.1V402.9l46.9-6.9c2.6-.4 4.9 1.6 4.9 4.2z"/><path fill="#E8EBF0" d="M387.1 400.6v102.7c0 3.3-2.3 6.2-5.4 6.9l-44.9 9.2V403.2l45.6-6.9c2.5-.3 4.7 1.7 4.7 4.3z"/><path fill="#CED4E0" d="M380.5 410.7l-43.7 108.6 44.9-9.2c3.1-.6 5.4-3.5 5.4-6.9v-77.1l-6.6-15.4z"/><path fill="#BEC4D0" d="M380.5 392.4v102.4c0 3.9-1.3 8.8-4.7 10.2l-39 14.3V402.9l39.5-14c2-.7 4.2 1.1 4.2 3.5z"/><path fill="#E4E7F0" d="M378.9 392.7v102.1c0 3.9-2.1 7.4-5.4 8.8l-36.7 15.7V403.2l38-13.9c2-.7 4.1 1 4.1 3.4z"/><path fill="#BEC4D0" d="M289.5 421.5h28.3v4.2h-28.3zM289.5 428.8h39.4v4.3h-39.4zM289.5 436.6h28.3v4.2h-28.3zM289.5 443.9h39.4v4.3h-39.4zM289.5 452h28.3v4.2h-28.3zM289.5 459.3h39.4v4.3h-39.4zM289.5 466.7h28.3v4.2h-28.3zM289.5 474h39.4v4.3h-39.4zM289.5 481h28.3v4.2h-28.3zM289.5 488.2h39.4v4.3h-39.4zM342.2 419.1l20.4-7.5v3.8l-20.4 7.9zM342.2 425.5l32.4-12.1v4.1l-32.4 11.3zM342.4 433.6l20.5-7.5v3.8l-20.5 7.9zM342.4 440l32.4-12.1v4.1l-32.4 11.4z"/><path fill="#FFF" d="M335.3 417.7h2.9v8.6h-2.9zM335.4 449.7h2.9v8.6h-2.9zM335.3 483.9h2.9v8.6h-2.9z"/></svg>