<svg version="1.1" id="Layer_1" xmlns="http://www.w3.org/2000/svg" x="0" y="0" viewBox="0 0 612 389" xml:space="preserve"><path fill="#E95F5B" d="M214.5 110.6l-42.6 24.6-42.5-24.6V61.5l42.5-24.6 42.6 24.6z"/><path fill="none" stroke="#58595B" stroke-width="4" stroke-linecap="round" stroke-miterlimit="10" d="M161.3 311.1l-116-66.5V103.7l122-70.4"/><path fill="none" stroke="#58595B" stroke-width="10" stroke-linecap="round" stroke-miterlimit="10" d="M280.5 145.1V286l-122 70.4"/><path fill="#FBB040" d="M270.6 280.6l-76.1 43.9-76.1-43.9v-87.8l76.1-44 76.1 44z"/><path fill="#FBB040" d="M153.8 347.7l40.7-23.2-21.7-13.2z"/><path fill="#AECD63" d="M60.9 248.4l52.8-29.9v-74.2l-64.2-37v135"/><path fill="#B75151" d="M144 118.5h55.5l-27.6 16.1z"/><path fill="#A6A8AB" d="M63.7 248.7l52-29.5v59.1z"/><path fill="#D0D2D3" d="M53.2 106.2l72.5-41.9v81z"/><path fill="#BBBDBF" d="M117 147.5v42.8l37.5-21.6z"/><path fill="#A6A8AB" d="M127.5 113.7v32l24-18.1z"/><path fill="#808184" d="M151.9 130.1v33.3l-25.4-14.3z"/><path fill="#E6E7E8" d="M153.6 130.2v33.3l29-16.1z"/><path fill="none" stroke="#FFF" stroke-width="8" stroke-linecap="round" stroke-miterlimit="10" d="M144.5 236s12.7-14.7 32-14.7 20.7 17.7 43.7 17.7 24-18 24-18"/><path fill="none" stroke="#6E9A2D" stroke-width="3" stroke-miterlimit="10" d="M113.8 205c-12.7 0-23-10.3-23-23s10.3-23 23-23"/><path fill="#D0D2D3" d="M178.8 137.7l40.4 23v-46zM218 63v44.5l34.8-21.8z"/><path fill="#A6A8AB" d="M255.8 87.3v47.4l-38.1-23.6z"/><path fill="#E6E7E8" d="M271.4 154.3v36l-29-17.8z"/><path fill="#BBBDBF" d="M240 170.7v-40.8l32.8 20.2z"/><path fill="#E6E7E8" d="M237.8 153.3V172l-16.3-10zM237.8 129.1v18.6l-16.3-10z"/><path fill="#D0D2D3" d="M220.5 160v-19.3l17 10.3zM220.5 135.5v-19.3l17 10.3z"/><g fill="#59595C" stroke-width="4" stroke-miterlimit="10"><path stroke="#59595C" d="M571.2 125.3l-6.3 2.7c-6.3-14.2-19.1-21.4-34-22.3v-6.8c17.6.9 33.1 9.5 40.3 26.4zM572.1 218.4c0 24.3-18.9 41.8-43.4 43.2v-6.8c20.9-1.6 36.7-16 36.7-36.4 0-18.9-22-28.8-40-35.1-20.3-7-44.5-18.2-44.5-41.4 0-24.3 18.7-41.6 43.4-43v6.8c-21.1 1.3-36.7 16-36.7 36.2 0 18.9 22 28.8 40 35.1 20.2 7 44.5 18.3 44.5 41.4zM521.9 254.9v6.8c-17.8-.9-33.1-9.4-40.3-26.6l6.3-2.7c6.3 14.2 19.2 21.6 34 22.5z"/><path stroke="#58595B" d="M339.2 101.4h6.8v157.5h-6.8z"/><path stroke="#59595C" d="M404 252.2h69.3v6.7H404zM390.5 101.4h6.8v157.5h-6.8z"/></g><g fill="none" stroke="#59595C" stroke-width="3" stroke-linejoin="round"><path d="M571.2 125.3l-6.3 2.7c-6.3-14.2-19.1-21.4-34-22.3v-6.8c17.6.9 33.1 9.5 40.3 26.4zM572.1 218.4c0 24.3-18.9 41.8-43.4 43.2v-6.8c20.9-1.6 36.7-16 36.7-36.4 0-18.9-22-28.8-40-35.1-20.3-7-44.5-18.2-44.5-41.4 0-24.3 18.7-41.6 43.4-43v6.8c-21.1 1.3-36.7 16-36.7 36.2 0 18.9 22 28.8 40 35.1 20.2 7 44.5 18.3 44.5 41.4zM521.9 254.9v6.8c-17.8-.9-33.1-9.4-40.3-26.6l6.3-2.7c6.3 14.2 19.2 21.6 34 22.5zM339.2 101.4h6.8v157.5h-6.8zM404 252.2h69.3v6.7H404zM390.5 101.4h6.8v157.5h-6.8z"/></g></svg>