<?xml version="1.0" encoding="utf-8"?>
<!-- Generator: Adobe Illustrator 18.0.0, SVG Export Plug-In . SVG Version: 6.00 Build 0)  -->
<!DOCTYPE svg PUBLIC "-//W3C//DTD SVG 1.1//EN" "http://www.w3.org/Graphics/SVG/1.1/DTD/svg11.dtd">
<svg version="1.1" id="Layer_1" xmlns="http://www.w3.org/2000/svg" xmlns:xlink="http://www.w3.org/1999/xlink" x="0px" y="0px"
	 viewBox="277.4 387.7 164.4 162.2" enable-background="new 277.4 387.7 164.4 162.2" xml:space="preserve">
<g>
	<polygon fill="#E4E4E4" points="395.5,427.3 441.8,498.9 441.8,549.9 294.9,549.9 283.3,533.7 	"/>
	<path fill="#B87E66" d="M386.2,534.4h-98.8c-5.2,0-9.3-4.2-9.3-9.3v-89.3c0-5.2,4.2-9.3,9.3-9.3h98.8c5.2,0,9.3,4.2,9.3,9.3V525
		C395.5,530.2,391.4,534.4,386.2,534.4z"/>
	<path fill="#F5AA89" d="M386,529.6h-98.8c-5.2,0-9.3-4.2-9.3-9.3V431c0-5.2,4.2-9.3,9.3-9.3H386c5.2,0,9.3,4.2,9.3,9.3v89.3
		C395.3,525.4,391.1,529.6,386,529.6z"/>
	<path fill="#99A3B7" d="M336.8,525.9h-45.5c-5.5,0-10-4.5-10-10v-5h55.5V525.9z"/>
	<path fill="#929DAF" d="M382.6,525.9h-45.8v-15h55.5v5.3C392.2,521.6,387.9,525.9,382.6,525.9z"/>
	<path fill="#EEEFF4" d="M384.7,519.3h-95.9c-4.1,0-7.5-3.4-7.5-7.5V410.7c0-4.1,3.4-7.5,7.5-7.5h95.9c4.1,0,7.5,3.4,7.5,7.5v101.1
		C392.2,515.9,388.9,519.3,384.7,519.3z"/>
	<path fill="#CED4E0" d="M388.5,409.5l3.7,9.5v95.5c0,2.6-2,4.7-4.5,4.7h-50.9L388.5,409.5z"/>
	<path fill="#BEC4D0" d="M388.5,400.2v103c0,3.3-1.9,7.3-5.2,7.9l-46.6,8.1V402.9l46.9-6.9C386.2,395.6,388.5,397.6,388.5,400.2z"/>
	<path fill="#E8EBF0" d="M387.1,400.6v102.7c0,3.3-2.3,6.2-5.4,6.9l-44.9,9.2V403.2l45.6-6.9C384.9,396,387.1,398,387.1,400.6z"/>
	<path fill="#CED4E0" d="M380.5,410.7l-43.7,108.6l44.9-9.2c3.1-0.6,5.4-3.5,5.4-6.9v-77.1L380.5,410.7z"/>
	<path fill="#BEC4D0" d="M380.5,392.4v102.4c0,3.9-1.3,8.8-4.7,10.2l-39,14.3V402.9l39.5-14C378.3,388.2,380.5,390,380.5,392.4z"/>
	<path fill="#E4E7F0" d="M378.9,392.7v102.1c0,3.9-2.1,7.4-5.4,8.8l-36.7,15.7V403.2l38-13.9C376.8,388.6,378.9,390.3,378.9,392.7z"
		/>
	<rect x="289.5" y="421.5" fill="#BEC4D0" width="28.3" height="4.2"/>
	<rect x="289.5" y="428.8" fill="#BEC4D0" width="39.4" height="4.3"/>
	<rect x="289.5" y="436.6" fill="#BEC4D0" width="28.3" height="4.2"/>
	<rect x="289.5" y="443.9" fill="#BEC4D0" width="39.4" height="4.3"/>
	<rect x="289.5" y="452" fill="#BEC4D0" width="28.3" height="4.2"/>
	<rect x="289.5" y="459.3" fill="#BEC4D0" width="39.4" height="4.3"/>
	<rect x="289.5" y="466.7" fill="#BEC4D0" width="28.3" height="4.2"/>
	<rect x="289.5" y="474" fill="#BEC4D0" width="39.4" height="4.3"/>
	<rect x="289.5" y="481" fill="#BEC4D0" width="28.3" height="4.2"/>
	<rect x="289.5" y="488.2" fill="#BEC4D0" width="39.4" height="4.3"/>
	<polygon fill="#BEC4D0" points="342.2,419.1 362.6,411.6 362.6,415.4 342.2,423.3 	"/>
	<polygon fill="#BEC4D0" points="342.2,425.5 374.6,413.4 374.6,417.5 342.2,428.8 	"/>
	<polygon fill="#BEC4D0" points="342.4,433.6 362.9,426.1 362.9,429.9 342.4,437.8 	"/>
	<polygon fill="#BEC4D0" points="342.4,440 374.8,427.9 374.8,432 342.4,443.4 	"/>
	<rect x="335.3" y="417.7" fill="#FFFFFF" width="2.9" height="8.6"/>
	<rect x="335.4" y="449.7" fill="#FFFFFF" width="2.9" height="8.6"/>
	<rect x="335.3" y="483.9" fill="#FFFFFF" width="2.9" height="8.6"/>
</g>
</svg>
