<?xml version="1.0" encoding="utf-8"?>
<!-- Generator: Adobe Illustrator 18.0.0, SVG Export Plug-In . SVG Version: 6.00 Build 0)  -->
<!DOCTYPE svg PUBLIC "-//W3C//DTD SVG 1.1//EN" "http://www.w3.org/Graphics/SVG/1.1/DTD/svg11.dtd">
<svg version="1.1" id="Layer_1" xmlns="http://www.w3.org/2000/svg" xmlns:xlink="http://www.w3.org/1999/xlink" x="0px" y="0px"
	 viewBox="277.4 387.7 164.4 162.2" enable-background="new 277.4 387.7 164.4 162.2" xml:space="preserve">
<g>
	<polygon fill="#E4E4E4" points="368.6,398.8 441.8,491.8 441.8,549.9 304.3,549.9 284,523.7 	"/>
	<path fill="#75CAEE" d="M368.7,525.4h-71.8c-10.8,0-19.5-8.7-19.5-19.5V404.2c0-9.1,7.4-16.5,16.5-16.5h74.8V525.4z"/>
	<path fill="#58B6E2" d="M287.8,525.4L287.8,525.4V387.7l0,0c-5.8,0-10.4,4.7-10.4,10.4v116.8C277.4,520.7,282.1,525.4,287.8,525.4z
		"/>
	<path fill="#3EA8E0" d="M368.6,525.2h-78.5c-7,0-12.7-5.7-12.7-12.7v0c0-7,5.7-12.7,12.7-12.7h78.5V525.2z"/>
	<path fill="#FFFFFF" d="M368.7,523.7h-79.1c-6.1,0-11.1-5-11.1-11.1v0c0-6.1,5-11.1,11.1-11.1h79.1V523.7z"/>
	<rect x="287.8" y="505.3" fill="#CED4E0" width="79.4" height="1.4"/>
	<rect x="287.8" y="509.7" fill="#CED4E0" width="79.4" height="1.4"/>
	<rect x="287.8" y="514.1" fill="#CED4E0" width="79.4" height="1.4"/>
	<rect x="287.8" y="518.5" fill="#CED4E0" width="79.4" height="1.4"/>
	<g>
		<polygon fill="#ED7466" points="295.7,511.2 295.7,528.5 301.5,519.9 301.5,511.2 		"/>
		<polygon fill="#E85F5C" points="307.2,511.2 307.2,528.5 301.5,519.9 301.5,511.2 		"/>
	</g>
	<g>
		<g>
			<g>
				<rect x="315.6" y="412.7" fill="#ED703F" width="23.9" height="4.7"/>
			</g>
			<g>
				<rect x="307.6" y="421.3" fill="#ED703F" width="39.9" height="4.7"/>
			</g>
			<g>
				<rect x="315.6" y="429.8" fill="#ED703F" width="23.9" height="4.7"/>
			</g>
		</g>
	</g>
</g>
</svg>
