<?xml version="1.0" encoding="utf-8"?>
<!-- Generator: Adobe Illustrator 18.0.0, SVG Export Plug-In . SVG Version: 6.00 Build 0)  -->
<!DOCTYPE svg PUBLIC "-//W3C//DTD SVG 1.1//EN" "http://www.w3.org/Graphics/SVG/1.1/DTD/svg11.dtd">
<svg version="1.1" id="Layer_1" xmlns="http://www.w3.org/2000/svg" xmlns:xlink="http://www.w3.org/1999/xlink" x="0px" y="0px"
	 viewBox="45 287.9 549 332" enable-background="new 45 287.9 549 332" xml:space="preserve">
<polygon fill="#E95F5B" points="217.6,371.2 176.2,395.1 134.8,371.2 134.8,323.5 176.2,299.6 217.6,323.5 "/>
<polyline fill="none" stroke="#58595B" stroke-width="4" stroke-linecap="round" stroke-miterlimit="10" points="165.9,566.2 
	53,501.6 53,364.6 171.7,296 "/>
<polyline fill="none" stroke="#58595B" stroke-width="10" stroke-linecap="round" stroke-miterlimit="10" points="281.9,404.8 
	281.9,541.8 163.2,610.3 "/>
<polygon fill="#FBB040" points="272.2,536.6 198.2,579.3 124.2,536.6 124.2,451.1 198.2,408.4 272.2,451.1 "/>
<polygon fill="#FBB040" points="158.6,601.8 198.2,579.3 177.1,566.5 "/>
<polyline fill="#AECD63" points="68.2,505.3 119.6,476.2 119.6,404.1 57.2,368 57.1,368 57.1,499.4 "/>
<polygon fill="#B75151" points="149.1,378.9 203,378.9 176.2,394.6 "/>
<polygon fill="#A7A9AC" points="70.9,505.5 121.5,476.8 121.5,534.4 "/>
<polygon fill="#D1D3D4" points="60.7,366.9 131.2,326.2 131.2,405 "/>
<polygon fill="#BCBEC0" points="122.8,407.1 122.8,448.8 159.3,427.7 "/>
<polygon fill="#A7A9AC" points="133,374.3 133,405.4 156.4,387.8 "/>
<polygon fill="#808285" points="156.7,390.2 156.7,422.6 132,408.7 "/>
<polygon fill="#E6E7E8" points="158.4,390.3 158.4,422.7 186.6,407.1 "/>
<path fill="none" stroke="#FFFFFF" stroke-width="8" stroke-linecap="round" stroke-miterlimit="10" d="M149.6,493.2
	c0,0,12.3-14.3,31.1-14.3s20.1,17.2,42.5,17.2s23.3-17.5,23.3-17.5"/>
<path fill="none" stroke="#6E9A2D" stroke-width="3" stroke-miterlimit="10" d="M119.7,463.1c-12.4,0-22.4-10-22.4-22.4
	c0-12.4,10-22.4,22.4-22.4"/>
<polygon fill="#D1D3D4" points="182.9,397.6 222.2,419.9 222.2,375.2 "/>
<polygon fill="#D1D3D4" points="221,324.9 221,368.2 254.8,347.1 "/>
<polygon fill="#A7A9AC" points="257.8,348.5 257.8,394.6 220.7,371.8 "/>
<polygon fill="#E6E7E8" points="273,413.8 273,448.8 244.8,431.4 "/>
<polygon fill="#BCBEC0" points="242.4,429.7 242.4,390 274.3,409.7 "/>
<polygon fill="#E6E7E8" points="240.3,412.8 240.3,431 224.4,421.2 "/>
<polygon fill="#E6E7E8" points="240.3,389.2 240.3,407.4 224.4,397.6 "/>
<polygon fill="#D1D3D4" points="223.5,419.3 223.5,400.5 240,410.5 "/>
<polygon fill="#D1D3D4" points="223.5,395.5 223.5,376.7 240,386.7 "/>
<g>
	<g>
		<path fill="#59595B" d="M411.5,385l-7.3,3.1c-7.3-16.4-22.2-24.8-39.4-25.8v-7.8C385.2,355.5,403.2,365.4,411.5,385z"/>
		<path fill="#59595B" d="M412.6,493c0,28.2-21.9,48.5-50.4,50.1v-7.8c24.3-1.8,42.5-18.5,42.5-42.3c0-21.9-25.6-33.4-46.4-40.7
			c-23.5-8.1-51.7-21.1-51.7-48c0-28.2,21.7-48.3,50.4-49.8v7.8c-24.5,1.6-42.5,18.5-42.5,42c0,21.9,25.6,33.4,46.4,40.7
			C384.4,453.1,412.6,466.2,412.6,493z"/>
		<path fill="#59595B" d="M354.4,535.3v7.8c-20.6-1-38.4-11-46.7-30.8l7.3-3.1C322.3,525.7,337.2,534.3,354.4,535.3z"/>
		<rect x="445.2" y="357.3" fill="#59595B" width="7.8" height="182.7"/>
		<rect x="505.2" y="532.2" fill="#59595B" width="80.4" height="7.8"/>
		<rect x="489.6" y="357.3" fill="#59595B" width="7.8" height="182.7"/>
	</g>
	<g>
		<path fill="none" stroke="#59595B" stroke-width="3" stroke-linejoin="round" d="M411.5,385l-7.3,3.1
			c-7.3-16.4-22.2-24.8-39.4-25.8v-7.8C385.2,355.5,403.2,365.4,411.5,385z"/>
		<path fill="none" stroke="#59595B" stroke-width="3" stroke-linejoin="round" d="M412.6,493c0,28.2-21.9,48.5-50.4,50.1v-7.8
			c24.3-1.8,42.5-18.5,42.5-42.3c0-21.9-25.6-33.4-46.4-40.7c-23.5-8.1-51.7-21.1-51.7-48c0-28.2,21.7-48.3,50.4-49.8v7.8
			c-24.5,1.6-42.5,18.5-42.5,42c0,21.9,25.6,33.4,46.4,40.7C384.4,453.1,412.6,466.2,412.6,493z"/>
		<path fill="none" stroke="#59595B" stroke-width="3" stroke-linejoin="round" d="M354.4,535.3v7.8c-20.6-1-38.4-11-46.7-30.8
			l7.3-3.1C322.3,525.7,337.2,534.3,354.4,535.3z"/>
		<rect x="445.2" y="357.3" fill="none" stroke="#59595B" stroke-width="3" stroke-linejoin="round" width="7.8" height="182.7"/>
		<rect x="505.2" y="532.2" fill="none" stroke="#59595B" stroke-width="3" stroke-linejoin="round" width="80.4" height="7.8"/>
		<rect x="489.6" y="357.3" fill="none" stroke="#59595B" stroke-width="3" stroke-linejoin="round" width="7.8" height="182.7"/>
	</g>
</g>
</svg>
