<svg version="1.1" id="Layer_1" xmlns="http://www.w3.org/2000/svg" x="0" y="0" viewBox="277.4 387.7 164.4 162.2" xml:space="preserve"><path fill="#E4E4E4" d="M368.6 398.8l73.2 93v58.1H304.3L284 523.7z"/><path fill="#75CAEE" d="M368.7 525.4h-71.8c-10.8 0-19.5-8.7-19.5-19.5V404.2c0-9.1 7.4-16.5 16.5-16.5h74.8v137.7z"/><path fill="#58B6E2" d="M287.8 525.4V387.7c-5.8 0-10.4 4.7-10.4 10.4v116.8c0 5.8 4.7 10.5 10.4 10.5z"/><path fill="#3EA8E0" d="M368.6 525.2h-78.5c-7 0-12.7-5.7-12.7-12.7 0-7 5.7-12.7 12.7-12.7h78.5v25.4z"/><path fill="#FFF" d="M368.7 523.7h-79.1c-6.1 0-11.1-5-11.1-11.1s5-11.1 11.1-11.1h79.1v22.2z"/><path fill="#CED4E0" d="M287.8 505.3h79.4v1.4h-79.4zM287.8 509.7h79.4v1.4h-79.4zM287.8 514.1h79.4v1.4h-79.4zM287.8 518.5h79.4v1.4h-79.4z"/><path fill="#ED7466" d="M295.7 511.2v17.3l5.8-8.6v-8.7z"/><path fill="#E85F5C" d="M307.2 511.2v17.3l-5.7-8.6v-8.7z"/><g><path fill="#ED703F" d="M315.6 412.7h23.9v4.7h-23.9zM307.6 421.3h39.9v4.7h-39.9zM315.6 429.8h23.9v4.7h-23.9z"/></g></svg>