<svg version="1.1" id="Layer_1" xmlns="http://www.w3.org/2000/svg" x="0" y="0" viewBox="277.4 387.7 164.4 162.2" xml:space="preserve"><path fill="#E4E4E4" d="M370.9 390l71.5 74.4v86.2H320.9l-42.8-37z"/><path fill="#283E53" d="M370.5 523.2h-83.1c-5.2 0-9.4-4.2-9.4-9.4V399.3c0-5.2 4.2-9.4 9.4-9.4h83.1c5.2 0 9.4 4.2 9.4 9.4v114.5c0 5.2-4.2 9.4-9.4 9.4z"/><path fill="#C4C5C7" d="M305.9 388.6H352v2.6h-46.1z"/><path fill="#FFFBF2" d="M287.4 395.9h83.2c2.8 0 5 2.4 5 5.3v111.3c0 2.9-2.2 5.3-5 5.3h-66.3c-1.4 0-2.6-.6-3.6-1.6l-17-18.7c-.9-1-1.4-2.3-1.4-3.7v-92.7c.1-2.8 2.3-5.2 5.1-5.2z"/><path fill="#DADBD6" stroke="#B9B9B9" stroke-width=".5" stroke-miterlimit="10" d="M296 396.2v8.8c0 .5.4 1 .9 1h20.7c.2 0 .4-.1.6-.2l1.3-1.1c.2-.2.4-.2.6-.2h15c.1 0 .3 0 .4.1l2.8 1.4c.1.1.3.1.4.1H361c.5 0 .9-.4.9-1v-8.8c0-.5-.4-1-.9-1h-64.1c-.5-.1-.9.4-.9.9zm63.3 8.6h-20c-.2 0-.3 0-.4-.1L336 403c-.1-.1-.3-.1-.4-.1h-16c-.2 0-.4.1-.6.2l-1.5 1.4c-.2.2-.4.2-.6.2h-18.1c-.5 0-.9-.4-.9-1v-6.6c0-.5.4-1 .9-1h60.6c.5 0 .9.4.9 1v6.6c-.1.7-.5 1.1-1 1.1z"/><path fill="#8F939E" d="M305.9 391.3H352v3.3h-46.1z"/><path fill="#526379" d="M305.9 394.6H352v2.6h-46.1z"/><path fill="#F3F3F3" stroke="#C3BABC" stroke-width="2" stroke-miterlimit="10" d="M306.3 434.2h-15.4c-1 0-1.7-.8-1.7-1.7v-16.6c0-1 .8-1.7 1.7-1.7h15.4c1 0 1.7.8 1.7 1.7v16.6c0 1-.8 1.7-1.7 1.7zM306.3 459.4h-15.4c-1 0-1.7-.8-1.7-1.7v-16.6c0-1 .8-1.7 1.7-1.7h15.4c1 0 1.7.8 1.7 1.7v16.6c0 .9-.8 1.7-1.7 1.7zM306.3 484.5h-15.4c-1 0-1.7-.8-1.7-1.7v-16.6c0-1 .8-1.7 1.7-1.7h15.4c1 0 1.7.8 1.7 1.7v16.6c0 .9-.8 1.7-1.7 1.7z"/><path fill="#D8D5CE" d="M365.8 428h-47.2c-2 0-3.5-1.6-3.5-3.5v-.5c0-2 1.6-3.5 3.5-3.5h47.2c2 0 3.5 1.6 3.5 3.5v.4c.1 2-1.5 3.6-3.5 3.6zM365.8 453.1h-47.2c-2 0-3.5-1.6-3.5-3.5v-.4c0-2 1.6-3.5 3.5-3.5h47.2c2 0 3.5 1.6 3.5 3.5v.4c.1 1.9-1.5 3.5-3.5 3.5zM365.8 478.2h-47.2c-2 0-3.5-1.6-3.5-3.5v-.4c0-2 1.6-3.5 3.5-3.5h47.2c2 0 3.5 1.6 3.5 3.5v.4c.1 1.9-1.5 3.5-3.5 3.5z"/><path fill="#E95149" d="M295 423.9c-.6-.8-1.6-.8-2.3-.1l-1.1 1.1c-.6.6-.6 1.7 0 2.3l1.1 1.1 1.9 2.1c.6.6 1.6.6 2.2 0l2.3-2.4 6.3-6.7c.6-.6.6-1.7 0-2.3l-.8-.9c-.6-.7-1.6-.6-2.2 0l-5.1 5.8c-.6.8-1.7.7-2.3 0z"/><path fill="#EEEBE6" d="M284.3 496h16.3c.9 0 1.7.8 1.7 1.8v17.8c0 .8-1 1.2-1.5.6l-17-18.7c-.6-.6-.2-1.5.5-1.5z"/><path fill="#FFE6AE" d="M320.5 490.5l-9.8 5.2c-.4.2-.8-.3-.6-.7l4.6-11.1c.2-.4.7-.5 1-.2l5 5.7c.3.4.2.9-.2 1.1z"/><path fill="#F8B041" d="M317 487.4l.3.4c.7.7 1.8.7 2.4 0l46.5-52.5-2.6-2.9-46.6 52.7c-.6.6-.6 1.6 0 2.3z"/><path fill="#8C8C8C" d="M311.1 492.6s1.1.2 1.8 2l-2.9 1.5c-.2.1-.4-.1-.3-.3l1.4-3.2z"/><path opacity=".19" fill="#444" d="M316.9 485.2l-7.4 11.3 5.6-13.4z"/><path fill="#97999D" d="M371.7 429.2l1.9 2-5.5 6.2-1.8-2.1z"/><path fill="#C7CCD1" d="M369.2 426.3l2.5 2.9-5.4 6.1-2.6-2.9z"/><path fill="#B7BBC0" d="M367.3 424.2l1.9 2.1-5.5 6.1-1.8-2.1z"/><path fill="#EDA33F" d="M315.1 485.2c.5.6 1.3.6 1.8 0l46.8-52.8-1.8-2.1-46.8 52.8-.4.9c0 .4.1.9.4 1.2z"/><path fill="#E89F3E" d="M319.5 490.1c.3.3.7.5 1 .4l.8-.4 46.8-52.8-1.8-2.1-46.8 52.8c-.5.6-.5 1.6 0 2.1z"/><path fill="#E84641" d="M373.3 431.5s3.6-4.3.5-7.9c-3.1-3.5-6.7.9-6.7.9l6.2 7z"/></svg>