<svg version="1.1" id="Layer_1" xmlns="http://www.w3.org/2000/svg" x="0" y="0" viewBox="277.4 387.7 164.4 162.2" xml:space="preserve"><path fill="#E4E4E4" d="M371.2 391l71.6 74.1v85.8H321.2L278.4 514z"/><path fill="#283E53" d="M370.9 523.6h-83.2c-5.2 0-9.4-4.2-9.4-9.4V400.3c0-5.2 4.2-9.4 9.4-9.4h83.2c5.2 0 9.4 4.2 9.4 9.4v113.9c0 5.2-4.2 9.4-9.4 9.4z"/><path fill="#C4C5C7" d="M306.3 389.6h46.1v2.6h-46.1z"/><path fill="#FFFBF2" d="M287.7 396.9H371c2.8 0 5 2.4 5 5.3V513c0 2.9-2.2 5.3-5 5.3h-66.3c-1.4 0-2.6-.6-3.6-1.6l-17-18.6c-.9-1-1.4-2.3-1.4-3.7v-92.2c0-2.9 2.2-5.3 5-5.3z"/><path fill="#DADBD6" stroke="#B9B9B9" stroke-width=".5" stroke-miterlimit="10" d="M296.3 397.2v8.7c0 .5.4 1 .9 1H318c.2 0 .4-.1.6-.2l1.3-1.1c.2-.2.4-.2.6-.2h15.1c.1 0 .3 0 .4.1l2.8 1.4c.1.1.3.1.4.1h22.3c.5 0 .9-.4.9-1v-8.7c0-.5-.4-1-.9-1h-64.1c-.6-.1-1.1.3-1.1.9zm63.4 8.5h-20c-.2 0-.3 0-.4-.1l-2.9-1.7c-.1-.1-.3-.1-.4-.1h-16c-.2 0-.4.1-.6.2l-1.5 1.4c-.2.2-.4.2-.6.2H299c-.5 0-.9-.4-.9-1V398c0-.5.4-1 .9-1h60.7c.5 0 .9.4.9 1v6.6c0 .7-.4 1.1-.9 1.1z"/><path fill="#8F939E" d="M306.3 392.3h46.1v3.3h-46.1z"/><path fill="#526379" d="M306.3 395.6h46.1v2.6h-46.1z"/><path fill="#F3F3F3" stroke="#C3BABC" stroke-width="2" stroke-miterlimit="10" d="M306.6 435h-15.4c-1 0-1.7-.8-1.7-1.7v-16.5c0-1 .8-1.7 1.7-1.7h15.4c1 0 1.7.8 1.7 1.7v16.5c0 1-.7 1.7-1.7 1.7zM306.6 460h-15.4c-1 0-1.7-.8-1.7-1.7v-16.5c0-1 .8-1.7 1.7-1.7h15.4c1 0 1.7.8 1.7 1.7v16.5c0 1-.7 1.7-1.7 1.7zM306.6 485h-15.4c-1 0-1.7-.8-1.7-1.7v-16.5c0-1 .8-1.7 1.7-1.7h15.4c1 0 1.7.8 1.7 1.7v16.5c0 1-.7 1.7-1.7 1.7z"/><path fill="#D8D5CE" d="M366.2 428.8H319c-2 0-3.5-1.6-3.5-3.5v-.4c0-2 1.6-3.5 3.5-3.5h47.2c2 0 3.5 1.6 3.5 3.5v.4c0 1.9-1.5 3.5-3.5 3.5zM366.2 453.8H319c-2 0-3.5-1.6-3.5-3.5v-.4c0-2 1.6-3.5 3.5-3.5h47.2c2 0 3.5 1.6 3.5 3.5v.4c0 1.9-1.5 3.5-3.5 3.5zM366.2 478.8H319c-2 0-3.5-1.6-3.5-3.5v-.4c0-2 1.6-3.5 3.5-3.5h47.2c2 0 3.5 1.6 3.5 3.5v.4c0 1.9-1.5 3.5-3.5 3.5z"/><path fill="#E95149" d="M295.3 424.7c-.6-.8-1.6-.8-2.3-.1l-1.1 1.1c-.6.6-.6 1.7 0 2.3l1.1 1.1 1.9 2.1c.6.6 1.6.6 2.2 0l2.3-2.4 6.4-6.7c.6-.6.6-1.7 0-2.3l-.8-.9c-.6-.7-1.6-.6-2.2 0l-5.1 5.8c-.7.8-1.8.8-2.4 0zM295.3 449.7c-.6-.8-1.6-.8-2.3-.1l-1.1 1.1c-.6.6-.6 1.7 0 2.3l1.1 1.1 1.9 2.1c.6.6 1.6.6 2.2 0l2.3-2.4 6.4-6.7c.6-.6.6-1.7 0-2.3l-.8-.9c-.6-.7-1.6-.6-2.2 0l-5.1 5.8c-.7.8-1.8.8-2.4 0z"/><path fill="#EEEBE6" d="M284.6 496.5h16.3c.9 0 1.7.8 1.7 1.7V516c0 .8-1 1.2-1.5.6L284 498c-.5-.6-.1-1.5.6-1.5z"/><path fill="#53BDC3" d="M365.6 504.2l-5.1-1.6-5.1-1.5-8 29.3 9.4-4.3 5.9 8.9 8-29.3z"/><path fill="#53BDC3" d="M377 503.6l-4.9 2-5 2.1 10.6 28.4 5-9.5 9.8 3.3-10.6-28.4z"/><path fill="#187384" d="M356.8 526.1l-9.4 4.3 9.4-34.5 6.6 3.3zM382.7 526.6l9.8 3.3-10.6-28.4-7.3 3.1z"/><ellipse fill="#FCC635" cx="368.9" cy="487" rx="21.2" ry="22.4"/><ellipse fill="#EF8018" cx="368.9" cy="487" rx="17.9" ry="18.9"/><ellipse fill="#FFDE66" cx="368.9" cy="487" rx="15" ry="15.8"/><path fill="#FDC723" d="M379.5 498.1c5.9-6.2 5.9-16.2 0-22.4l-21.2 22.4c5.9 6.2 15.4 6.2 21.2 0z"/><path fill="#E95149" d="M295.3 474.7c-.6-.8-1.6-.8-2.3-.1l-1.1 1.1c-.6.6-.6 1.7 0 2.3l1.1 1.1 1.9 2.1c.6.6 1.6.6 2.2 0l2.3-2.4 6.4-6.7c.6-.6.6-1.7 0-2.3l-.8-.9c-.6-.7-1.6-.6-2.2 0l-5.1 5.8c-.7.8-1.8.8-2.4 0z"/></svg>