<svg version="1.1" id="Layer_1" xmlns="http://www.w3.org/2000/svg" x="0" y="0" viewBox="45 287.9 549 332" xml:space="preserve"><path fill="#E95F5B" d="M217.6 371.2l-41.4 23.9-41.4-23.9v-47.7l41.4-23.9 41.4 23.9z"/><path fill="none" stroke="#58595B" stroke-width="4" stroke-linecap="round" stroke-miterlimit="10" d="M165.9 566.2L53 501.6v-137L171.7 296"/><path fill="none" stroke="#58595B" stroke-width="10" stroke-linecap="round" stroke-miterlimit="10" d="M281.9 404.8v137l-118.7 68.5"/><path fill="#FBB040" d="M272.2 536.6l-74 42.7-74-42.7v-85.5l74-42.7 74 42.7z"/><path fill="#FBB040" d="M158.6 601.8l39.6-22.5-21.1-12.8z"/><path fill="#AECD63" d="M68.2 505.3l51.4-29.1v-72.1L57.2 368h-.1v131.4"/><path fill="#B75151" d="M149.1 378.9H203l-26.8 15.7z"/><path fill="#A7A9AC" d="M70.9 505.5l50.6-28.7v57.6z"/><path fill="#D1D3D4" d="M60.7 366.9l70.5-40.7V405z"/><path fill="#BCBEC0" d="M122.8 407.1v41.7l36.5-21.1z"/><path fill="#A7A9AC" d="M133 374.3v31.1l23.4-17.6z"/><path fill="#808285" d="M156.7 390.2v32.4L132 408.7z"/><path fill="#E6E7E8" d="M158.4 390.3v32.4l28.2-15.6z"/><path fill="none" stroke="#FFF" stroke-width="8" stroke-linecap="round" stroke-miterlimit="10" d="M149.6 493.2s12.3-14.3 31.1-14.3 20.1 17.2 42.5 17.2 23.3-17.5 23.3-17.5"/><path fill="none" stroke="#6E9A2D" stroke-width="3" stroke-miterlimit="10" d="M119.7 463.1c-12.4 0-22.4-10-22.4-22.4 0-12.4 10-22.4 22.4-22.4"/><path fill="#D1D3D4" d="M182.9 397.6l39.3 22.3v-44.7zM221 324.9v43.3l33.8-21.1z"/><path fill="#A7A9AC" d="M257.8 348.5v46.1l-37.1-22.8z"/><path fill="#E6E7E8" d="M273 413.8v35l-28.2-17.4z"/><path fill="#BCBEC0" d="M242.4 429.7V390l31.9 19.7z"/><path fill="#E6E7E8" d="M240.3 412.8V431l-15.9-9.8zM240.3 389.2v18.2l-15.9-9.8z"/><path fill="#D1D3D4" d="M223.5 419.3v-18.8l16.5 10zM223.5 395.5v-18.8l16.5 10z"/><g fill="#59595B"><path d="M411.5 385l-7.3 3.1c-7.3-16.4-22.2-24.8-39.4-25.8v-7.8c20.4 1 38.4 10.9 46.7 30.5zM412.6 493c0 28.2-21.9 48.5-50.4 50.1v-7.8c24.3-1.8 42.5-18.5 42.5-42.3 0-21.9-25.6-33.4-46.4-40.7-23.5-8.1-51.7-21.1-51.7-48 0-28.2 21.7-48.3 50.4-49.8v7.8c-24.5 1.6-42.5 18.5-42.5 42 0 21.9 25.6 33.4 46.4 40.7 23.5 8.1 51.7 21.2 51.7 48zM354.4 535.3v7.8c-20.6-1-38.4-11-46.7-30.8l7.3-3.1c7.3 16.5 22.2 25.1 39.4 26.1zM445.2 357.3h7.8V540h-7.8zM505.2 532.2h80.4v7.8h-80.4zM489.6 357.3h7.8V540h-7.8z"/></g><g fill="none" stroke="#59595B" stroke-width="3" stroke-linejoin="round"><path d="M411.5 385l-7.3 3.1c-7.3-16.4-22.2-24.8-39.4-25.8v-7.8c20.4 1 38.4 10.9 46.7 30.5zM412.6 493c0 28.2-21.9 48.5-50.4 50.1v-7.8c24.3-1.8 42.5-18.5 42.5-42.3 0-21.9-25.6-33.4-46.4-40.7-23.5-8.1-51.7-21.1-51.7-48 0-28.2 21.7-48.3 50.4-49.8v7.8c-24.5 1.6-42.5 18.5-42.5 42 0 21.9 25.6 33.4 46.4 40.7 23.5 8.1 51.7 21.2 51.7 48zM354.4 535.3v7.8c-20.6-1-38.4-11-46.7-30.8l7.3-3.1c7.3 16.5 22.2 25.1 39.4 26.1zM445.2 357.3h7.8V540h-7.8zM505.2 532.2h80.4v7.8h-80.4zM489.6 357.3h7.8V540h-7.8z"/></g></svg>